{"glyphs":{"0":{"ha":1171,"x_min":54,"x_max":1116,"o":"m 54 1 l 54 1036 l 1116 1036 l 1116 1 l 54 1 m 1062 56 l 1062 982 l 109 982 l 109 56 l 1062 56 m 264 212 l 264 830 l 906 830 l 906 212 l 264 212 m 852 266 l 852 772 l 319 772 l 319 266 l 852 266 z "},"1":{"ha":541,"x_min":54,"x_max":487,"o":"m 222 1 l 222 772 l 54 772 l 54 1036 l 487 1036 l 487 1 l 222 1 m 434 56 l 434 982 l 109 982 l 109 826 l 277 826 l 277 56 l 434 56 z "},"2":{"ha":1171,"x_min":54,"x_max":1116,"o":"m 1116 1 l 54 1 l 54 377 l 410 651 l 852 651 l 852 772 l 54 772 l 54 1036 l 1116 1036 l 1116 387 l 422 387 l 320 309 l 320 266 l 1116 266 l 1116 1 m 107 56 l 1062 56 l 1062 213 l 264 213 l 264 328 l 408 441 l 1062 441 l 1062 983 l 107 983 l 107 826 l 905 826 l 905 598 l 426 598 l 107 355 l 107 56 z "},"3":{"ha":1171,"x_min":54,"x_max":1116,"o":"m 106 656 l 749 655 l 852 732 l 852 770 l 54 770 l 54 1035 l 1116 1035 l 1116 667 l 928 525 l 928 511 l 1116 368 l 1116 1 l 54 1 l 54 266 l 852 266 l 852 304 l 749 381 l 106 382 l 106 656 m 1062 345 l 865 492 l 865 543 l 1062 690 l 1062 982 l 107 982 l 109 825 l 905 825 l 905 713 l 754 600 l 155 600 l 155 437 l 754 437 l 905 323 l 905 212 l 109 212 l 107 54 l 1062 54 l 1062 345 z "},"4":{"ha":1135,"x_min":54,"x_max":1081,"o":"m 817 0 l 817 391 l 54 391 l 54 445 l 109 1035 l 373 1035 l 342 655 l 817 655 l 817 1035 l 1081 1035 l 1081 0 l 817 0 m 1027 54 l 1027 982 l 871 982 l 871 602 l 274 602 l 305 982 l 167 982 l 122 445 l 871 445 l 871 54 l 1027 54 z "},"5":{"ha":1171,"x_min":54,"x_max":1116,"o":"m 54 1 l 54 266 l 850 266 l 850 309 l 749 387 l 54 387 l 54 1036 l 1116 1036 l 1116 772 l 319 772 l 319 654 l 761 654 l 1116 380 l 1116 1 l 54 1 m 1063 56 l 1063 358 l 745 601 l 266 601 l 266 826 l 1063 826 l 1063 983 l 109 983 l 109 441 l 762 441 l 906 328 l 906 213 l 109 213 l 109 56 l 1063 56 z "},"6":{"ha":1171,"x_min":54,"x_max":1116,"o":"m 850 266 l 850 309 l 749 387 l 317 388 l 317 266 l 850 266 m 54 1036 l 1116 1036 l 1116 772 l 319 772 l 319 654 l 761 654 l 1116 380 l 1116 1 l 54 1 l 54 1036 m 264 441 l 762 441 l 906 328 l 906 213 l 264 213 l 264 441 m 1063 56 l 1063 358 l 745 601 l 266 601 l 266 826 l 1063 826 l 1063 983 l 109 983 l 109 56 l 1063 56 z "},"7":{"ha":1171,"x_min":54,"x_max":1116,"o":"m 54 1035 l 1116 1035 l 1116 656 l 761 382 l 663 382 l 663 0 l 399 0 l 399 650 l 749 650 l 850 727 l 850 770 l 54 770 l 54 1035 m 1063 981 l 109 981 l 109 823 l 906 823 l 906 708 l 762 595 l 453 595 l 453 53 l 610 53 l 610 435 l 745 435 l 1063 678 l 1063 981 z "},"8":{"ha":1171,"x_min":54,"x_max":1116,"o":"m 54 1 l 54 369 l 243 513 l 243 526 l 54 670 l 54 1036 l 1116 1036 l 1116 670 l 928 526 l 928 513 l 1116 369 l 1116 1 l 54 1 m 1062 56 l 1062 347 l 865 495 l 865 544 l 1062 692 l 1062 983 l 109 983 l 109 692 l 305 544 l 305 495 l 109 347 l 109 56 l 1062 56 m 408 601 l 263 705 l 263 827 l 906 827 l 906 712 l 762 601 l 408 601 m 852 730 l 852 774 l 319 774 l 319 726 l 422 654 l 749 654 l 852 730 m 408 444 l 762 444 l 906 332 l 906 217 l 263 217 l 263 339 l 408 444 m 852 315 l 749 391 l 422 391 l 319 319 l 319 270 l 852 270 l 852 315 z "},"9":{"ha":1171,"x_min":54,"x_max":1116,"o":"m 1116 1034 l 1116 -1 l 54 -1 l 54 263 l 852 263 l 852 381 l 54 381 l 54 1034 l 1116 1034 m 852 769 l 319 769 l 319 646 l 850 646 l 852 769 m 906 209 l 109 209 l 109 52 l 1062 52 l 1062 979 l 109 979 l 109 434 l 905 434 l 906 209 m 264 591 l 264 823 l 906 823 l 905 591 l 264 591 z "}," ":{"ha":538,"x_min":0,"x_max":0,"o":""},"!":{"ha":694,"x_min":0,"x_max":0,"o":""},"\"":{"ha":694,"x_min":0,"x_max":0,"o":""},"#":{"ha":694,"x_min":0,"x_max":0,"o":""},"$":{"ha":694,"x_min":0,"x_max":0,"o":""},"%":{"ha":694,"x_min":0,"x_max":0,"o":""},"&":{"ha":694,"x_min":0,"x_max":0,"o":""},"'":{"ha":694,"x_min":0,"x_max":0,"o":""},"(":{"ha":694,"x_min":0,"x_max":0,"o":""},")":{"ha":694,"x_min":0,"x_max":0,"o":""},"*":{"ha":694,"x_min":0,"x_max":0,"o":""},"+":{"ha":694,"x_min":0,"x_max":0,"o":""},",":{"ha":694,"x_min":0,"x_max":0,"o":""},"-":{"ha":821,"x_min":81,"x_max":739,"o":"m 81 387 l 81 651 l 739 651 l 739 387 l 81 387 m 685 441 l 685 598 l 134 598 l 134 441 l 685 441 z "},".":{"ha":400,"x_min":68,"x_max":332,"o":"m 68 1 l 68 266 l 332 266 l 332 1 l 68 1 m 278 56 l 278 213 l 121 213 l 121 56 l 278 56 z "},"/":{"ha":694,"x_min":0,"x_max":0,"o":""},":":{"ha":454,"x_min":95,"x_max":359,"o":"m 95 172 l 95 437 l 359 437 l 359 172 l 95 172 m 305 227 l 305 384 l 148 384 l 148 227 l 305 227 m 95 614 l 95 879 l 359 879 l 359 614 l 95 614 m 305 669 l 305 826 l 148 826 l 148 669 l 305 669 z "},";":{"ha":694,"x_min":0,"x_max":0,"o":""},"<":{"ha":694,"x_min":0,"x_max":0,"o":""},"=":{"ha":694,"x_min":0,"x_max":0,"o":""},">":{"ha":694,"x_min":0,"x_max":0,"o":""},"?":{"ha":694,"x_min":0,"x_max":0,"o":""},"@":{"ha":694,"x_min":0,"x_max":0,"o":""},"A":{"ha":1154,"x_min":46,"x_max":1108,"o":"m 46 0 l 136 1035 l 1017 1035 l 1108 0 l 844 0 l 812 388 l 342 388 l 311 0 l 46 0 m 252 54 l 288 442 l 865 442 l 902 54 l 1040 54 l 960 981 l 194 981 l 113 54 l 252 54 m 301 598 l 319 825 l 834 825 l 852 598 l 301 598 m 785 652 l 776 770 l 377 770 l 369 652 l 785 652 z "},"B":{"ha":1171,"x_min":54,"x_max":1116,"o":"m 54 0 l 54 1035 l 1116 1035 l 1116 667 l 928 525 l 928 511 l 1116 368 l 1116 0 l 54 0 m 1062 54 l 1062 345 l 865 492 l 865 543 l 1062 690 l 1062 982 l 107 982 l 107 54 l 1062 54 m 264 601 l 264 825 l 905 825 l 905 713 l 754 600 l 264 601 m 852 732 l 852 770 l 319 770 l 319 655 l 749 655 l 852 732 m 264 444 l 754 444 l 905 331 l 905 220 l 264 220 l 264 444 m 852 312 l 749 389 l 319 389 l 319 274 l 852 274 l 852 312 z "},"C":{"ha":1171,"x_min":54,"x_max":1116,"o":"m 54 0 l 54 1035 l 1116 1035 l 1116 770 l 319 770 l 319 264 l 1116 264 l 1116 0 l 54 0 m 1062 54 l 1062 210 l 264 210 l 264 825 l 1062 825 l 1062 982 l 109 982 l 109 54 l 1062 54 z "},"D":{"ha":1169,"x_min":54,"x_max":1115,"o":"m 54 0 l 54 1036 l 768 1036 l 1115 773 l 1115 0 l 54 0 m 1062 56 l 1062 754 l 749 982 l 109 982 l 109 56 l 1062 56 m 263 212 l 263 827 l 757 827 l 906 716 l 906 212 l 263 212 m 852 266 l 852 692 l 745 772 l 319 772 l 319 266 l 852 266 z "},"E":{"ha":1171,"x_min":54,"x_max":1116,"o":"m 54 0 l 54 1038 l 1116 1038 l 1116 773 l 319 773 l 319 652 l 972 652 l 972 388 l 319 388 l 319 264 l 1116 264 l 1116 0 l 54 0 m 1062 54 l 1062 210 l 264 210 l 264 442 l 920 442 l 920 598 l 264 598 l 264 827 l 1062 827 l 1062 985 l 109 985 l 109 54 l 1062 54 z "},"F":{"ha":1171,"x_min":54,"x_max":1116,"o":"m 54 0 l 54 1038 l 1116 1038 l 1116 773 l 319 773 l 319 652 l 972 652 l 972 388 l 319 388 l 319 0 l 54 0 m 264 54 l 264 442 l 920 442 l 920 598 l 264 598 l 264 827 l 1062 827 l 1062 985 l 109 985 l 109 54 l 264 54 z "},"G":{"ha":1171,"x_min":54,"x_max":1116,"o":"m 54 0 l 54 1035 l 1116 1035 l 1116 770 l 319 770 l 319 264 l 852 264 l 852 388 l 624 388 l 624 652 l 1116 652 l 1116 0 l 54 0 m 1062 54 l 1062 600 l 677 600 l 677 442 l 906 442 l 906 210 l 264 210 l 264 825 l 1062 825 l 1062 982 l 109 982 l 109 54 l 1062 54 z "},"H":{"ha":1171,"x_min":54,"x_max":1116,"o":"m 54 1 l 54 1036 l 319 1036 l 319 651 l 852 651 l 852 1036 l 1116 1036 l 1116 1 l 852 1 l 852 388 l 319 388 l 319 1 l 54 1 m 264 56 l 264 441 l 905 441 l 905 56 l 1062 56 l 1062 983 l 905 983 l 905 598 l 264 598 l 264 983 l 107 983 l 107 56 l 264 56 z "},"I":{"ha":373,"x_min":54,"x_max":319,"o":"m 54 1 l 54 1036 l 319 1036 l 319 1 l 54 1 m 264 56 l 264 983 l 107 983 l 107 56 l 264 56 z "},"J":{"ha":1171,"x_min":54,"x_max":1116,"o":"m 1116 0 l 54 0 l 54 388 l 319 388 l 319 264 l 852 264 l 852 1035 l 1116 1035 l 1116 0 m 109 54 l 1062 54 l 1062 982 l 906 982 l 906 210 l 264 210 l 264 336 l 109 336 l 109 54 z "},"K":{"ha":1171,"x_min":54,"x_max":1116,"o":"m 54 1 l 54 1036 l 319 1036 l 319 654 l 749 654 l 852 735 l 852 1036 l 1116 1036 l 1116 673 l 928 529 l 928 515 l 1116 372 l 1116 1 l 852 1 l 852 309 l 749 389 l 319 389 l 319 1 l 54 1 m 264 56 l 264 444 l 762 444 l 906 331 l 906 56 l 1062 56 l 1062 350 l 865 498 l 865 547 l 1062 694 l 1062 983 l 906 983 l 906 712 l 762 601 l 264 601 l 264 983 l 109 983 l 109 56 l 264 56 z "},"L":{"ha":1171,"x_min":54,"x_max":1116,"o":"m 54 0 l 54 1035 l 319 1035 l 319 264 l 1116 264 l 1116 0 l 54 0 m 1062 54 l 1062 210 l 264 210 l 264 982 l 109 982 l 109 54 l 1062 54 z "},"M":{"ha":1446,"x_min":54,"x_max":1392,"o":"m 597 1 l 319 669 l 319 1 l 54 1 l 54 1036 l 445 1036 l 718 355 l 728 355 l 1001 1036 l 1392 1036 l 1392 1 l 1127 1 l 1127 669 l 849 1 l 597 1 m 682 283 l 396 982 l 109 982 l 109 54 l 266 54 l 266 768 l 342 768 l 629 65 l 817 65 l 1104 768 l 1180 768 l 1180 54 l 1337 54 l 1337 982 l 1050 982 l 764 283 l 682 283 z "},"N":{"ha":1171,"x_min":54,"x_max":1116,"o":"m 54 1 l 54 1036 l 404 1036 l 852 476 l 852 1036 l 1116 1036 l 1116 1 l 852 1 l 319 673 l 319 1 l 54 1 m 264 54 l 264 780 l 297 780 l 879 54 l 1062 54 l 1062 982 l 906 982 l 906 369 l 869 369 l 377 982 l 109 982 l 109 54 l 264 54 z "},"O":{"ha":1171,"x_min":54,"x_max":1116,"o":"m 54 1 l 54 1036 l 1116 1036 l 1116 1 l 54 1 m 1062 56 l 1062 982 l 109 982 l 109 56 l 1062 56 m 264 212 l 264 830 l 906 830 l 906 212 l 264 212 m 852 266 l 852 772 l 319 772 l 319 266 l 852 266 z "},"P":{"ha":1171,"x_min":54,"x_max":1116,"o":"m 54 0 l 54 1035 l 1116 1035 l 1115 675 l 741 388 l 319 388 l 319 0 l 54 0 m 266 54 l 266 442 l 731 442 l 1063 700 l 1063 982 l 109 982 l 109 54 l 266 54 m 266 598 l 266 825 l 906 825 l 906 708 l 762 598 l 266 598 m 849 730 l 852 770 l 319 770 l 319 652 l 749 652 l 849 730 z "},"Q":{"ha":1171,"x_min":54,"x_max":1116,"o":"m 54 1 l 54 1036 l 1116 1036 l 1116 1 l 720 1 l 720 -159 l 456 -159 l 456 1 l 54 1 m 852 266 l 852 772 l 319 772 l 319 266 l 456 266 l 456 388 l 720 388 l 720 266 l 852 266 m 720 56 l 1062 56 l 1062 982 l 109 982 l 109 56 l 507 56 l 509 -104 l 666 -104 l 665 56 l 720 56 m 666 335 l 509 335 l 509 212 l 264 212 l 264 830 l 906 830 l 906 212 l 666 212 l 666 335 z "},"R":{"ha":1171,"x_min":54,"x_max":1116,"o":"m 54 1 l 54 1036 l 1116 1036 l 1116 669 l 928 525 l 928 511 l 1116 369 l 1115 0 l 849 0 l 850 307 l 749 387 l 319 387 l 319 1 l 54 1 m 266 54 l 266 439 l 762 439 l 906 328 l 906 54 l 1063 54 l 1063 346 l 865 494 l 865 543 l 1063 690 l 1063 982 l 109 982 l 109 54 l 266 54 m 266 600 l 266 826 l 906 826 l 906 709 l 762 600 l 266 600 m 852 732 l 852 772 l 319 772 l 319 654 l 749 654 l 852 732 z "},"S":{"ha":1171,"x_min":54,"x_max":1116,"o":"m 54 0 l 54 264 l 852 264 l 852 388 l 54 388 l 54 1035 l 1116 1035 l 1116 770 l 319 770 l 319 655 l 1116 655 l 1116 0 l 54 0 m 1062 54 l 1062 601 l 264 601 l 264 825 l 1062 825 l 1062 981 l 109 981 l 109 442 l 906 442 l 906 210 l 109 210 l 109 54 l 1062 54 z "},"T":{"ha":1171,"x_min":54,"x_max":1116,"o":"m 453 1 l 453 772 l 54 772 l 54 1036 l 1116 1036 l 1116 772 l 718 772 l 718 1 l 453 1 m 665 56 l 665 826 l 1063 826 l 1063 982 l 109 982 l 109 826 l 507 826 l 507 56 l 665 56 z "},"U":{"ha":1171,"x_min":54,"x_max":1116,"o":"m 54 1 l 54 1036 l 319 1036 l 319 266 l 852 266 l 852 1036 l 1116 1036 l 1116 1 l 54 1 m 1062 56 l 1062 983 l 905 983 l 905 213 l 264 213 l 264 983 l 107 983 l 107 56 l 1062 56 z "},"V":{"ha":1154,"x_min":46,"x_max":1108,"o":"m 136 1 l 46 1036 l 311 1036 l 377 266 l 776 266 l 844 1036 l 1108 1036 l 1019 1 l 136 1 m 960 56 l 1040 983 l 902 983 l 834 213 l 319 213 l 252 983 l 113 983 l 194 56 l 960 56 z "},"W":{"ha":1430,"x_min":46,"x_max":1383,"o":"m 488 0 l 136 0 l 46 1036 l 311 1036 l 377 264 l 486 264 l 583 336 l 583 1036 l 846 1036 l 846 336 l 944 264 l 1053 264 l 1119 1036 l 1383 1036 l 1294 0 l 941 0 l 715 171 l 488 0 m 637 982 l 637 319 l 498 212 l 319 212 l 252 982 l 113 982 l 194 62 l 483 62 l 713 236 l 947 62 l 1236 62 l 1317 982 l 1177 982 l 1111 212 l 932 212 l 792 319 l 792 982 l 637 982 z "},"X":{"ha":1169,"x_min":54,"x_max":1115,"o":"m 761 444 l 905 331 l 905 56 l 1061 56 l 1061 350 l 864 498 l 864 547 l 1061 694 l 1061 983 l 905 983 l 905 712 l 761 601 l 408 601 l 264 712 l 264 983 l 109 983 l 109 694 l 305 547 l 305 498 l 109 350 l 109 56 l 264 56 l 264 331 l 408 444 l 761 444 m 747 654 l 850 735 l 850 1036 l 1115 1036 l 1115 673 l 926 529 l 926 515 l 1115 372 l 1115 1 l 850 1 l 850 309 l 747 389 l 422 389 l 319 309 l 319 1 l 54 1 l 54 372 l 243 515 l 243 529 l 54 673 l 54 1036 l 319 1036 l 319 735 l 422 654 l 747 654 z "},"Y":{"ha":1169,"x_min":54,"x_max":1115,"o":"m 663 53 l 662 382 l 1062 689 l 1062 981 l 905 981 l 905 712 l 692 551 l 477 551 l 264 712 l 264 981 l 107 981 l 107 689 l 507 382 l 506 53 l 663 53 m 692 608 l 852 730 l 852 1035 l 1115 1035 l 1115 667 l 716 361 l 716 0 l 453 0 l 453 361 l 54 667 l 54 1035 l 317 1035 l 317 730 l 477 608 l 692 608 z "},"Z":{"ha":1172,"x_min":54,"x_max":1118,"o":"m 1062 708 l 1062 982 l 109 982 l 109 825 l 906 825 l 906 749 l 110 326 l 110 52 l 1063 52 l 1063 209 l 266 209 l 266 285 l 1062 708 m 846 770 l 54 770 l 54 1035 l 1116 1035 l 1116 681 l 326 263 l 1118 263 l 1118 -1 l 56 -1 l 56 353 l 846 770 z "},"[":{"ha":694,"x_min":0,"x_max":0,"o":""},"\\":{"ha":694,"x_min":0,"x_max":0,"o":""},"]":{"ha":694,"x_min":0,"x_max":0,"o":""},"^":{"ha":694,"x_min":0,"x_max":0,"o":""},"_":{"ha":694,"x_min":0,"x_max":0,"o":""},"`":{"ha":694,"x_min":0,"x_max":0,"o":""},"a":{"ha":1154,"x_min":46,"x_max":1108,"o":"m 46 0 l 136 1035 l 1017 1035 l 1108 0 l 844 0 l 812 388 l 342 388 l 311 0 l 46 0 m 252 54 l 288 442 l 865 442 l 902 54 l 1040 54 l 960 981 l 194 981 l 113 54 l 252 54 m 301 598 l 319 825 l 834 825 l 852 598 l 301 598 m 785 652 l 776 770 l 377 770 l 369 652 l 785 652 z "},"b":{"ha":1171,"x_min":54,"x_max":1116,"o":"m 54 0 l 54 1035 l 1116 1035 l 1116 667 l 928 525 l 928 511 l 1116 368 l 1116 0 l 54 0 m 1062 54 l 1062 345 l 865 492 l 865 543 l 1062 690 l 1062 982 l 107 982 l 107 54 l 1062 54 m 264 601 l 264 825 l 905 825 l 905 713 l 754 600 l 264 601 m 852 732 l 852 770 l 319 770 l 319 655 l 749 655 l 852 732 m 264 444 l 754 444 l 905 331 l 905 220 l 264 220 l 264 444 m 852 312 l 749 389 l 319 389 l 319 274 l 852 274 l 852 312 z "},"c":{"ha":1171,"x_min":54,"x_max":1116,"o":"m 54 0 l 54 1035 l 1116 1035 l 1116 770 l 319 770 l 319 264 l 1116 264 l 1116 0 l 54 0 m 1062 54 l 1062 210 l 264 210 l 264 825 l 1062 825 l 1062 982 l 109 982 l 109 54 l 1062 54 z "},"d":{"ha":1169,"x_min":54,"x_max":1115,"o":"m 54 0 l 54 1036 l 768 1036 l 1115 773 l 1115 0 l 54 0 m 1062 56 l 1062 754 l 749 982 l 109 982 l 109 56 l 1062 56 m 263 212 l 263 827 l 757 827 l 906 716 l 906 212 l 263 212 m 852 266 l 852 692 l 745 772 l 319 772 l 319 266 l 852 266 z "},"e":{"ha":1171,"x_min":54,"x_max":1116,"o":"m 54 0 l 54 1038 l 1116 1038 l 1116 773 l 319 773 l 319 652 l 972 652 l 972 388 l 319 388 l 319 264 l 1116 264 l 1116 0 l 54 0 m 1062 54 l 1062 210 l 264 210 l 264 442 l 920 442 l 920 598 l 264 598 l 264 827 l 1062 827 l 1062 985 l 109 985 l 109 54 l 1062 54 z "},"f":{"ha":1171,"x_min":54,"x_max":1116,"o":"m 54 0 l 54 1038 l 1116 1038 l 1116 773 l 319 773 l 319 652 l 972 652 l 972 388 l 319 388 l 319 0 l 54 0 m 264 54 l 264 442 l 920 442 l 920 598 l 264 598 l 264 827 l 1062 827 l 1062 985 l 109 985 l 109 54 l 264 54 z "},"g":{"ha":1171,"x_min":54,"x_max":1116,"o":"m 54 0 l 54 1035 l 1116 1035 l 1116 770 l 319 770 l 319 264 l 852 264 l 852 388 l 624 388 l 624 652 l 1116 652 l 1116 0 l 54 0 m 1062 54 l 1062 600 l 677 600 l 677 442 l 906 442 l 906 210 l 264 210 l 264 825 l 1062 825 l 1062 982 l 109 982 l 109 54 l 1062 54 z "},"h":{"ha":1171,"x_min":54,"x_max":1116,"o":"m 54 1 l 54 1036 l 319 1036 l 319 651 l 852 651 l 852 1036 l 1116 1036 l 1116 1 l 852 1 l 852 388 l 319 388 l 319 1 l 54 1 m 264 56 l 264 441 l 905 441 l 905 56 l 1062 56 l 1062 983 l 905 983 l 905 598 l 264 598 l 264 983 l 107 983 l 107 56 l 264 56 z "},"i":{"ha":373,"x_min":54,"x_max":319,"o":"m 54 1 l 54 1036 l 319 1036 l 319 1 l 54 1 m 264 56 l 264 983 l 107 983 l 107 56 l 264 56 z "},"j":{"ha":1171,"x_min":54,"x_max":1116,"o":"m 1116 0 l 54 0 l 54 388 l 319 388 l 319 264 l 852 264 l 852 1035 l 1116 1035 l 1116 0 m 109 54 l 1062 54 l 1062 982 l 906 982 l 906 210 l 264 210 l 264 336 l 109 336 l 109 54 z "},"k":{"ha":1171,"x_min":54,"x_max":1116,"o":"m 54 1 l 54 1036 l 319 1036 l 319 654 l 749 654 l 852 735 l 852 1036 l 1116 1036 l 1116 673 l 928 529 l 928 515 l 1116 372 l 1116 1 l 852 1 l 852 309 l 749 389 l 319 389 l 319 1 l 54 1 m 264 56 l 264 444 l 762 444 l 906 331 l 906 56 l 1062 56 l 1062 350 l 865 498 l 865 547 l 1062 694 l 1062 983 l 906 983 l 906 712 l 762 601 l 264 601 l 264 983 l 109 983 l 109 56 l 264 56 z "},"l":{"ha":1171,"x_min":54,"x_max":1116,"o":"m 54 0 l 54 1035 l 319 1035 l 319 264 l 1116 264 l 1116 0 l 54 0 m 1062 54 l 1062 210 l 264 210 l 264 982 l 109 982 l 109 54 l 1062 54 z "},"m":{"ha":1446,"x_min":54,"x_max":1392,"o":"m 597 1 l 319 669 l 319 1 l 54 1 l 54 1036 l 445 1036 l 718 355 l 728 355 l 1001 1036 l 1392 1036 l 1392 1 l 1127 1 l 1127 669 l 849 1 l 597 1 m 682 283 l 396 982 l 109 982 l 109 54 l 266 54 l 266 768 l 342 768 l 629 65 l 817 65 l 1104 768 l 1180 768 l 1180 54 l 1337 54 l 1337 982 l 1050 982 l 764 283 l 682 283 z "},"n":{"ha":1171,"x_min":54,"x_max":1116,"o":"m 54 1 l 54 1036 l 404 1036 l 852 476 l 852 1036 l 1116 1036 l 1116 1 l 852 1 l 319 673 l 319 1 l 54 1 m 264 54 l 264 780 l 297 780 l 879 54 l 1062 54 l 1062 982 l 906 982 l 906 369 l 869 369 l 377 982 l 109 982 l 109 54 l 264 54 z "},"o":{"ha":1171,"x_min":54,"x_max":1116,"o":"m 54 1 l 54 1036 l 1116 1036 l 1116 1 l 54 1 m 1062 56 l 1062 982 l 109 982 l 109 56 l 1062 56 m 264 212 l 264 830 l 906 830 l 906 212 l 264 212 m 852 266 l 852 772 l 319 772 l 319 266 l 852 266 z "},"p":{"ha":1171,"x_min":54,"x_max":1116,"o":"m 54 0 l 54 1035 l 1116 1035 l 1115 675 l 741 388 l 319 388 l 319 0 l 54 0 m 266 54 l 266 442 l 731 442 l 1063 700 l 1063 982 l 109 982 l 109 54 l 266 54 m 266 598 l 266 825 l 906 825 l 906 708 l 762 598 l 266 598 m 849 730 l 852 770 l 319 770 l 319 652 l 749 652 l 849 730 z "},"q":{"ha":1171,"x_min":54,"x_max":1116,"o":"m 54 1 l 54 1036 l 1116 1036 l 1116 1 l 720 1 l 720 -159 l 456 -159 l 456 1 l 54 1 m 852 266 l 852 772 l 319 772 l 319 266 l 456 266 l 456 388 l 720 388 l 720 266 l 852 266 m 720 56 l 1062 56 l 1062 982 l 109 982 l 109 56 l 507 56 l 509 -104 l 666 -104 l 665 56 l 720 56 m 666 335 l 509 335 l 509 212 l 264 212 l 264 830 l 906 830 l 906 212 l 666 212 l 666 335 z "},"r":{"ha":1171,"x_min":54,"x_max":1116,"o":"m 54 1 l 54 1036 l 1116 1036 l 1116 669 l 928 525 l 928 511 l 1116 369 l 1115 0 l 849 0 l 850 307 l 749 387 l 319 387 l 319 1 l 54 1 m 266 54 l 266 439 l 762 439 l 906 328 l 906 54 l 1063 54 l 1063 346 l 865 494 l 865 543 l 1063 690 l 1063 982 l 109 982 l 109 54 l 266 54 m 266 600 l 266 826 l 906 826 l 906 709 l 762 600 l 266 600 m 852 732 l 852 772 l 319 772 l 319 654 l 749 654 l 852 732 z "},"s":{"ha":1171,"x_min":54,"x_max":1116,"o":"m 54 0 l 54 264 l 852 264 l 852 388 l 54 388 l 54 1035 l 1116 1035 l 1116 770 l 319 770 l 319 655 l 1116 655 l 1116 0 l 54 0 m 1062 54 l 1062 601 l 264 601 l 264 825 l 1062 825 l 1062 981 l 109 981 l 109 442 l 906 442 l 906 210 l 109 210 l 109 54 l 1062 54 z "},"t":{"ha":1171,"x_min":54,"x_max":1116,"o":"m 453 1 l 453 772 l 54 772 l 54 1036 l 1116 1036 l 1116 772 l 718 772 l 718 1 l 453 1 m 665 56 l 665 826 l 1063 826 l 1063 982 l 109 982 l 109 826 l 507 826 l 507 56 l 665 56 z "},"u":{"ha":1171,"x_min":54,"x_max":1116,"o":"m 54 1 l 54 1036 l 319 1036 l 319 266 l 852 266 l 852 1036 l 1116 1036 l 1116 1 l 54 1 m 1062 56 l 1062 983 l 905 983 l 905 213 l 264 213 l 264 983 l 107 983 l 107 56 l 1062 56 z "},"v":{"ha":1154,"x_min":46,"x_max":1108,"o":"m 136 1 l 46 1036 l 311 1036 l 377 266 l 776 266 l 844 1036 l 1108 1036 l 1019 1 l 136 1 m 960 56 l 1040 983 l 902 983 l 834 213 l 319 213 l 252 983 l 113 983 l 194 56 l 960 56 z "},"w":{"ha":1430,"x_min":46,"x_max":1383,"o":"m 488 0 l 136 0 l 46 1036 l 311 1036 l 377 264 l 486 264 l 583 336 l 583 1036 l 846 1036 l 846 336 l 944 264 l 1053 264 l 1119 1036 l 1383 1036 l 1294 0 l 941 0 l 715 171 l 488 0 m 637 982 l 637 319 l 498 212 l 319 212 l 252 982 l 113 982 l 194 62 l 483 62 l 713 236 l 947 62 l 1236 62 l 1317 982 l 1177 982 l 1111 212 l 932 212 l 792 319 l 792 982 l 637 982 z "},"x":{"ha":1169,"x_min":54,"x_max":1115,"o":"m 761 444 l 905 331 l 905 56 l 1061 56 l 1061 350 l 864 498 l 864 547 l 1061 694 l 1061 983 l 905 983 l 905 712 l 761 601 l 408 601 l 264 712 l 264 983 l 109 983 l 109 694 l 305 547 l 305 498 l 109 350 l 109 56 l 264 56 l 264 331 l 408 444 l 761 444 m 747 654 l 850 735 l 850 1036 l 1115 1036 l 1115 673 l 926 529 l 926 515 l 1115 372 l 1115 1 l 850 1 l 850 309 l 747 389 l 422 389 l 319 309 l 319 1 l 54 1 l 54 372 l 243 515 l 243 529 l 54 673 l 54 1036 l 319 1036 l 319 735 l 422 654 l 747 654 z "},"y":{"ha":1169,"x_min":54,"x_max":1115,"o":"m 663 53 l 662 382 l 1062 689 l 1062 981 l 905 981 l 905 712 l 692 551 l 477 551 l 264 712 l 264 981 l 107 981 l 107 689 l 507 382 l 506 53 l 663 53 m 692 608 l 852 730 l 852 1035 l 1115 1035 l 1115 667 l 716 361 l 716 0 l 453 0 l 453 361 l 54 667 l 54 1035 l 317 1035 l 317 730 l 477 608 l 692 608 z "},"z":{"ha":1172,"x_min":54,"x_max":1118,"o":"m 1062 708 l 1062 982 l 109 982 l 109 825 l 906 825 l 906 749 l 110 326 l 110 52 l 1063 52 l 1063 209 l 266 209 l 266 285 l 1062 708 m 846 770 l 54 770 l 54 1035 l 1116 1035 l 1116 681 l 326 263 l 1118 263 l 1118 -1 l 56 -1 l 56 353 l 846 770 z "},"{":{"ha":694,"x_min":0,"x_max":0,"o":""},"|":{"ha":694,"x_min":0,"x_max":0,"o":""},"}":{"ha":694,"x_min":0,"x_max":0,"o":""},"~":{"ha":694,"x_min":0,"x_max":0,"o":""}," ":{"ha":694,"x_min":0,"x_max":0,"o":""},"¡":{"ha":694,"x_min":0,"x_max":0,"o":""},"¢":{"ha":694,"x_min":0,"x_max":0,"o":""},"£":{"ha":694,"x_min":0,"x_max":0,"o":""},"¤":{"ha":694,"x_min":0,"x_max":0,"o":""},"¥":{"ha":694,"x_min":0,"x_max":0,"o":""},"¦":{"ha":694,"x_min":0,"x_max":0,"o":""},"§":{"ha":694,"x_min":0,"x_max":0,"o":""},"¨":{"ha":694,"x_min":0,"x_max":0,"o":""},"©":{"ha":694,"x_min":0,"x_max":0,"o":""},"ª":{"ha":694,"x_min":0,"x_max":0,"o":""},"«":{"ha":694,"x_min":0,"x_max":0,"o":""},"¬":{"ha":694,"x_min":0,"x_max":0,"o":""},"­":{"ha":694,"x_min":0,"x_max":0,"o":""},"®":{"ha":694,"x_min":0,"x_max":0,"o":""},"¯":{"ha":694,"x_min":0,"x_max":0,"o":""},"°":{"ha":694,"x_min":0,"x_max":0,"o":""},"±":{"ha":694,"x_min":0,"x_max":0,"o":""},"²":{"ha":694,"x_min":0,"x_max":0,"o":""},"³":{"ha":694,"x_min":0,"x_max":0,"o":""},"´":{"ha":694,"x_min":0,"x_max":0,"o":""},"µ":{"ha":694,"x_min":0,"x_max":0,"o":""},"¶":{"ha":694,"x_min":0,"x_max":0,"o":""},"·":{"ha":694,"x_min":0,"x_max":0,"o":""},"¸":{"ha":694,"x_min":0,"x_max":0,"o":""},"¹":{"ha":694,"x_min":0,"x_max":0,"o":""},"º":{"ha":694,"x_min":0,"x_max":0,"o":""},"»":{"ha":694,"x_min":0,"x_max":0,"o":""},"¼":{"ha":694,"x_min":0,"x_max":0,"o":""},"½":{"ha":694,"x_min":0,"x_max":0,"o":""},"¾":{"ha":694,"x_min":0,"x_max":0,"o":""},"¿":{"ha":694,"x_min":0,"x_max":0,"o":""},"À":{"ha":694,"x_min":0,"x_max":0,"o":""},"Á":{"ha":694,"x_min":0,"x_max":0,"o":""},"Â":{"ha":694,"x_min":0,"x_max":0,"o":""},"Ã":{"ha":694,"x_min":0,"x_max":0,"o":""},"Ä":{"ha":694,"x_min":0,"x_max":0,"o":""},"Å":{"ha":694,"x_min":0,"x_max":0,"o":""},"Æ":{"ha":694,"x_min":0,"x_max":0,"o":""},"Ç":{"ha":694,"x_min":0,"x_max":0,"o":""},"È":{"ha":694,"x_min":0,"x_max":0,"o":""},"É":{"ha":694,"x_min":0,"x_max":0,"o":""},"Ê":{"ha":694,"x_min":0,"x_max":0,"o":""},"Ë":{"ha":694,"x_min":0,"x_max":0,"o":""},"Ì":{"ha":694,"x_min":0,"x_max":0,"o":""},"Í":{"ha":694,"x_min":0,"x_max":0,"o":""},"Î":{"ha":694,"x_min":0,"x_max":0,"o":""},"Ï":{"ha":694,"x_min":0,"x_max":0,"o":""},"Ð":{"ha":694,"x_min":0,"x_max":0,"o":""},"Ñ":{"ha":694,"x_min":0,"x_max":0,"o":""},"Ò":{"ha":694,"x_min":0,"x_max":0,"o":""},"Ó":{"ha":694,"x_min":0,"x_max":0,"o":""},"Ô":{"ha":694,"x_min":0,"x_max":0,"o":""},"Õ":{"ha":694,"x_min":0,"x_max":0,"o":""},"Ö":{"ha":694,"x_min":0,"x_max":0,"o":""},"×":{"ha":694,"x_min":0,"x_max":0,"o":""},"Ø":{"ha":694,"x_min":0,"x_max":0,"o":""},"Ù":{"ha":694,"x_min":0,"x_max":0,"o":""},"Ú":{"ha":694,"x_min":0,"x_max":0,"o":""},"Û":{"ha":694,"x_min":0,"x_max":0,"o":""},"Ü":{"ha":694,"x_min":0,"x_max":0,"o":""},"Ý":{"ha":694,"x_min":0,"x_max":0,"o":""},"Þ":{"ha":694,"x_min":0,"x_max":0,"o":""},"ß":{"ha":694,"x_min":0,"x_max":0,"o":""},"à":{"ha":694,"x_min":0,"x_max":0,"o":""},"á":{"ha":694,"x_min":0,"x_max":0,"o":""},"â":{"ha":694,"x_min":0,"x_max":0,"o":""},"ã":{"ha":694,"x_min":0,"x_max":0,"o":""},"ä":{"ha":694,"x_min":0,"x_max":0,"o":""},"å":{"ha":694,"x_min":0,"x_max":0,"o":""},"æ":{"ha":694,"x_min":0,"x_max":0,"o":""},"ç":{"ha":694,"x_min":0,"x_max":0,"o":""},"è":{"ha":694,"x_min":0,"x_max":0,"o":""},"é":{"ha":694,"x_min":0,"x_max":0,"o":""},"ê":{"ha":694,"x_min":0,"x_max":0,"o":""},"ë":{"ha":694,"x_min":0,"x_max":0,"o":""},"ì":{"ha":694,"x_min":0,"x_max":0,"o":""},"í":{"ha":694,"x_min":0,"x_max":0,"o":""},"î":{"ha":694,"x_min":0,"x_max":0,"o":""},"ï":{"ha":694,"x_min":0,"x_max":0,"o":""},"ð":{"ha":694,"x_min":0,"x_max":0,"o":""},"ñ":{"ha":694,"x_min":0,"x_max":0,"o":""},"ò":{"ha":694,"x_min":0,"x_max":0,"o":""},"ó":{"ha":694,"x_min":0,"x_max":0,"o":""},"ô":{"ha":694,"x_min":0,"x_max":0,"o":""},"õ":{"ha":694,"x_min":0,"x_max":0,"o":""},"ö":{"ha":694,"x_min":0,"x_max":0,"o":""},"÷":{"ha":694,"x_min":0,"x_max":0,"o":""},"ø":{"ha":694,"x_min":0,"x_max":0,"o":""},"ù":{"ha":694,"x_min":0,"x_max":0,"o":""},"ú":{"ha":694,"x_min":0,"x_max":0,"o":""},"û":{"ha":694,"x_min":0,"x_max":0,"o":""},"ü":{"ha":694,"x_min":0,"x_max":0,"o":""},"ý":{"ha":694,"x_min":0,"x_max":0,"o":""},"þ":{"ha":694,"x_min":0,"x_max":0,"o":""},"ÿ":{"ha":694,"x_min":0,"x_max":0,"o":""},"Œ":{"ha":694,"x_min":0,"x_max":0,"o":""},"œ":{"ha":694,"x_min":0,"x_max":0,"o":""},"Š":{"ha":694,"x_min":0,"x_max":0,"o":""},"š":{"ha":694,"x_min":0,"x_max":0,"o":""},"Ÿ":{"ha":694,"x_min":0,"x_max":0,"o":""},"Ž":{"ha":694,"x_min":0,"x_max":0,"o":""},"ž":{"ha":694,"x_min":0,"x_max":0,"o":""},"ƒ":{"ha":694,"x_min":0,"x_max":0,"o":""},"ˆ":{"ha":694,"x_min":0,"x_max":0,"o":""},"˜":{"ha":694,"x_min":0,"x_max":0,"o":""},"–":{"ha":694,"x_min":0,"x_max":0,"o":""},"—":{"ha":694,"x_min":0,"x_max":0,"o":""},"‘":{"ha":694,"x_min":0,"x_max":0,"o":""},"’":{"ha":694,"x_min":0,"x_max":0,"o":""},"‚":{"ha":694,"x_min":0,"x_max":0,"o":""},"“":{"ha":694,"x_min":0,"x_max":0,"o":""},"”":{"ha":694,"x_min":0,"x_max":0,"o":""},"„":{"ha":694,"x_min":0,"x_max":0,"o":""},"†":{"ha":694,"x_min":0,"x_max":0,"o":""},"‡":{"ha":694,"x_min":0,"x_max":0,"o":""},"•":{"ha":694,"x_min":0,"x_max":0,"o":""},"…":{"ha":694,"x_min":0,"x_max":0,"o":""},"‰":{"ha":694,"x_min":0,"x_max":0,"o":""},"‹":{"ha":694,"x_min":0,"x_max":0,"o":""},"›":{"ha":694,"x_min":0,"x_max":0,"o":""},"€":{"ha":694,"x_min":0,"x_max":0,"o":""},"™":{"ha":694,"x_min":0,"x_max":0,"o":""},"∙":{"ha":694,"x_min":0,"x_max":0,"o":""}}}
